<svg width="67" height="19" viewBox="0 0 67 19" fill="none" xmlns="http://www.w3.org/2000/svg">
<path d="M7.416 18.336C6.12 18.336 4.976 18.104 3.984 17.64C2.992 17.176 2.216 16.512 1.656 15.648C1.096 14.784 0.816 13.744 0.816 12.528V11.856H3.936V12.528C3.936 13.536 4.248 14.296 4.872 14.808C5.496 15.304 6.344 15.552 7.416 15.552C8.504 15.552 9.312 15.336 9.84 14.904C10.384 14.472 10.656 13.92 10.656 13.248C10.656 12.784 10.52 12.408 10.248 12.12C9.992 11.832 9.608 11.6 9.096 11.424C8.6 11.232 7.992 11.056 7.272 10.896L6.72 10.776C5.568 10.52 4.576 10.2 3.744 9.816C2.928 9.416 2.296 8.896 1.848 8.256C1.416 7.616 1.2 6.784 1.2 5.76C1.2 4.736 1.44 3.864 1.92 3.144C2.416 2.408 3.104 1.848 3.984 1.464C4.88 1.064 5.928 0.863999 7.128 0.863999C8.328 0.863999 9.392 1.072 10.32 1.488C11.264 1.888 12 2.496 12.528 3.312C13.072 4.112 13.344 5.12 13.344 6.336V7.056H10.224V6.336C10.224 5.696 10.096 5.184 9.84 4.8C9.6 4.4 9.248 4.112 8.784 3.936C8.32 3.744 7.768 3.648 7.128 3.648C6.168 3.648 5.456 3.832 4.992 4.2C4.544 4.552 4.32 5.04 4.32 5.664C4.32 6.08 4.424 6.432 4.632 6.72C4.856 7.008 5.184 7.248 5.616 7.44C6.048 7.632 6.6 7.8 7.272 7.944L7.824 8.064C9.024 8.32 10.064 8.648 10.944 9.048C11.84 9.448 12.536 9.976 13.032 10.632C13.528 11.288 13.776 12.128 13.776 13.152C13.776 14.176 13.512 15.08 12.984 15.864C12.472 16.632 11.736 17.24 10.776 17.688C9.832 18.12 8.712 18.336 7.416 18.336ZM19.2107 18.336C18.3627 18.336 17.6027 18.192 16.9307 17.904C16.2587 17.6 15.7227 17.168 15.3227 16.608C14.9387 16.032 14.7467 15.336 14.7467 14.52C14.7467 13.704 14.9387 13.024 15.3227 12.48C15.7227 11.92 16.2667 11.504 16.9547 11.232C17.6587 10.944 18.4587 10.8 19.3547 10.8H22.6187V10.128C22.6187 9.568 22.4427 9.112 22.0907 8.76C21.7387 8.392 21.1787 8.208 20.4107 8.208C19.6587 8.208 19.0987 8.384 18.7307 8.736C18.3627 9.072 18.1227 9.512 18.0107 10.056L15.2267 9.12C15.4187 8.512 15.7227 7.96 16.1387 7.464C16.5707 6.952 17.1387 6.544 17.8427 6.24C18.5627 5.92 19.4347 5.76 20.4587 5.76C22.0267 5.76 23.2667 6.152 24.1787 6.936C25.0907 7.72 25.5467 8.856 25.5467 10.344V14.784C25.5467 15.264 25.7707 15.504 26.2187 15.504H27.1787V18H25.1627C24.5707 18 24.0827 17.856 23.6987 17.568C23.3147 17.28 23.1227 16.896 23.1227 16.416V16.392H22.6667C22.6027 16.584 22.4587 16.84 22.2347 17.16C22.0107 17.464 21.6587 17.736 21.1787 17.976C20.6987 18.216 20.0427 18.336 19.2107 18.336ZM19.7387 15.888C20.5867 15.888 21.2747 15.656 21.8027 15.192C22.3467 14.712 22.6187 14.08 22.6187 13.296V13.056H19.5707C19.0107 13.056 18.5707 13.176 18.2507 13.416C17.9307 13.656 17.7707 13.992 17.7707 14.424C17.7707 14.856 17.9387 15.208 18.2747 15.48C18.6107 15.752 19.0987 15.888 19.7387 15.888ZM28.6697 18V1.2H31.6937V18H28.6697ZM34.3247 18V6.096H37.3487V18H34.3247ZM35.8367 4.704C35.2927 4.704 34.8287 4.528 34.4447 4.176C34.0767 3.824 33.8927 3.36 33.8927 2.784C33.8927 2.208 34.0767 1.744 34.4447 1.392C34.8287 1.04 35.2927 0.863999 35.8367 0.863999C36.3967 0.863999 36.8607 1.04 37.2287 1.392C37.5967 1.744 37.7807 2.208 37.7807 2.784C37.7807 3.36 37.5967 3.824 37.2287 4.176C36.8607 4.528 36.3967 4.704 35.8367 4.704ZM39.9797 18V6.096H42.9557V7.656H43.3877C43.5797 7.24 43.9397 6.848 44.4677 6.48C44.9957 6.096 45.7957 5.904 46.8677 5.904C47.7957 5.904 48.6037 6.12 49.2917 6.552C49.9957 6.968 50.5397 7.552 50.9237 8.304C51.3077 9.04 51.4997 9.904 51.4997 10.896V18H48.4757V11.136C48.4757 10.24 48.2517 9.568 47.8037 9.12C47.3717 8.672 46.7477 8.448 45.9317 8.448C45.0037 8.448 44.2837 8.76 43.7717 9.384C43.2597 9.992 43.0037 10.848 43.0037 11.952V18H39.9797ZM57.7448 18.336C56.8968 18.336 56.1368 18.192 55.4648 17.904C54.7928 17.6 54.2568 17.168 53.8568 16.608C53.4728 16.032 53.2808 15.336 53.2808 14.52C53.2808 13.704 53.4728 13.024 53.8568 12.48C54.2568 11.92 54.8008 11.504 55.4888 11.232C56.1928 10.944 56.9928 10.8 57.8888 10.8H61.1528V10.128C61.1528 9.568 60.9768 9.112 60.6248 8.76C60.2728 8.392 59.7128 8.208 58.9448 8.208C58.1928 8.208 57.6328 8.384 57.2648 8.736C56.8968 9.072 56.6568 9.512 56.5448 10.056L53.7608 9.12C53.9528 8.512 54.2568 7.96 54.6728 7.464C55.1048 6.952 55.6728 6.544 56.3768 6.24C57.0968 5.92 57.9688 5.76 58.9928 5.76C60.5608 5.76 61.8008 6.152 62.7128 6.936C63.6248 7.72 64.0808 8.856 64.0808 10.344V14.784C64.0808 15.264 64.3048 15.504 64.7528 15.504H65.7128V18H63.6968C63.1048 18 62.6168 17.856 62.2328 17.568C61.8488 17.28 61.6568 16.896 61.6568 16.416V16.392H61.2008C61.1368 16.584 60.9928 16.84 60.7688 17.16C60.5448 17.464 60.1928 17.736 59.7128 17.976C59.2328 18.216 58.5768 18.336 57.7448 18.336ZM58.2728 15.888C59.1208 15.888 59.8088 15.656 60.3368 15.192C60.8808 14.712 61.1528 14.08 61.1528 13.296V13.056H58.1048C57.5448 13.056 57.1048 13.176 56.7848 13.416C56.4648 13.656 56.3048 13.992 56.3048 14.424C56.3048 14.856 56.4728 15.208 56.8088 15.48C57.1448 15.752 57.6328 15.888 58.2728 15.888Z" fill="#7B61FF"/>
</svg>
