<svg width="453" height="462" viewBox="0 0 453 462" fill="none" xmlns="http://www.w3.org/2000/svg">
<path d="M124.247 144.056C124.247 64.692 194.874 0.354736 281.997 0.354736C369.12 0.354736 439.747 64.692 439.747 144.056V455.815H124.247V144.056Z" fill="#E1D7FF"/>
<path d="M59.4426 37.7094L59.1335 37.1848L59.4426 37.7094ZM53.7885 84.2282L53.677 84.8268L53.677 84.8268L53.7885 84.2282ZM2.46655 73.1858L7.53239 68.3101L0.776987 66.3608L2.46655 73.1858ZM142.982 77.0248C134.69 67.0842 120.572 53.1602 105.146 43.6925C89.7611 34.2496 72.8443 29.1051 59.1335 37.1848L59.7517 38.2339C72.8327 30.5254 89.1881 35.3268 104.509 44.7304C119.79 54.109 133.811 67.9318 142.047 77.8049L142.982 77.0248ZM59.1335 37.1848C42.266 47.1246 37.2813 58.3292 38.4152 67.5059C39.5403 76.6108 46.6914 83.5256 53.677 84.8268L53.9 83.6296C47.4527 82.4286 40.6859 75.9516 39.6238 67.3565C38.5706 58.8331 43.1294 48.0293 59.7517 38.2339L59.1335 37.1848ZM53.677 84.8268C58.7612 85.7738 63.3448 82.5936 66.7285 77.6139C70.1265 72.6128 72.4383 65.6427 72.9889 58.5785C73.5393 51.5173 72.3355 44.2799 68.6041 38.7878C64.8511 33.2639 58.5914 29.5823 49.2217 29.5823V30.8001C58.2278 30.8001 64.0919 34.3136 67.5968 39.4722C71.1234 44.6628 72.3117 51.5954 71.7748 58.4839C71.238 65.3696 68.983 72.1289 65.7212 76.9294C62.4449 81.7512 58.2756 84.4446 53.9 83.6296L53.677 84.8268ZM49.2217 29.5823C22.6857 29.5823 8.56301 52.5601 3.41 67.7224L4.56303 68.1142C9.67252 53.08 23.51 30.8001 49.2217 30.8001V29.5823Z" fill="#A77DFF"/>
<path d="M452.142 144.056V460.991H137.252V144.056C137.252 64.8863 207.715 0.659188 294.697 0.659188C381.679 0.659188 452.142 64.8863 452.142 144.056Z" stroke="#25A4AD" stroke-width="0.608904"/>
</svg>
